:SAMPLES-PER-SECOND 30
:FULLY-SPECIFIED
:DEGREES
51
root  -31.7126 17.2618 -4.11824 91.1899 78.9781 26.6164
RightUpLeg  -51.0327 -2.93688 -17.4855
RightLeg  89.9759 -11.1426 -164.337
RightFoot  -11.8974 -3.48583 141.063
RightToes  3.49245e-010 -3.18055e-015 8.94531e-016
Spine  53.9392 8.36395 -24.8986
Spine1  -31.2231 5.84644 20.2079
HEad  -67.8684 6.99983 -8.29512
LeftShoulder1  0 0 -2.47967e-037
LeftArm  -33.5248 -65.9846 -35.796
LeftForeArm  -9.94527 -59.9616 44.1857
LeftHand  0.932933 7.05086 1.59382
RightShoulder  -2.48481e-017 0 -8.08114e-019
RightArm  27.9909 -5.93075 80.9732
RightForeArm  7.64833 37.2056 -36.1838
RightHand  9.01997 -21.5373 -45.8512
LeftUpLeg  -71.7451 -12.3484 -22.5416
LeftLeg  116.485 -15.2312 2.17937
LeftFoot  -34.858 0.0299408 0.702858
LeftToes  -9.64061e-011 -5.23042e-011 -2.66379e-011
52
root  -30.2535 17.1435 -4.37512 99.9603 80.8992 34.8457
RightUpLeg  -54.1873 -3.59067 -15.9737
RightLeg  86.9576 -10.3514 -165.444
RightFoot  -11.6823 -4.17133 141.699
RightToes  3.49245e-010 -3.18055e-015 8.94531e-016
Spine  53.6197 7.8948 -21.9492
Spine1  -30.8527 6.59717 17.9534
HEad  -67.8679 5.56104 -7.71417
LeftShoulder1  0 0 -2.47967e-037
LeftArm  -23.2132 -65.9581 -51.0785
LeftForeArm  -15.9515 -63.9772 51.6803
LeftHand  1.20196 9.09317 -3.5052
RightShoulder  -2.48481e-017 0 -8.08114e-019
RightArm  27.6664 -10.886 75.7231
RightForeArm  4.23388 41.0375 -39.9773
RightHand  8.34643 -20.9685 -43.7331
LeftUpLeg  -67.0257 -13.4158 -20.4105
LeftLeg  112.786 -14.7276 1.83006
LeftFoot  -36.4003 0.476733 2.86187
LeftToes  -9.64061e-011 -5.23042e-011 -2.66379e-011
53
root  -28.8809 17.0305 -4.58693 110.332 82.8461 45.7798
RightUpLeg  -57.4016 -4.32726 -13.9593
RightLeg  82.0887 -8.80449 -159.457
RightFoot  -13.5205 1.25645 142.425
RightToes  3.49245e-010 -3.18055e-015 8.94531e-016
Spine  53.7729 7.72703 -19.7641
Spine1  -29.8063 7.03975 17.2762
HEad  -68.6045 5.36113 -7.62898
LeftShoulder1  0 0 -2.47967e-037
LeftArm  -16.9222 -65.0803 -61.9248
LeftForeArm  -18.0303 -65.7292 56.18
LeftHand  1.36648 10.6627 -3.6006
RightShoulder  -2.48481e-017 0 -8.08114e-019
RightArm  23.5818 -16.724 70.8452
RightForeArm  -2.22183 48.1896 -49.0162
RightHand  6.84916 -19.5112 -38.7676
LeftUpLeg  -61.9074 -13.8827 -18.0339
LeftLeg  109.472 -14.1445 1.06056
LeftFoot  -37.2692 1.06966 5.58779
LeftToes  -9.64061e-011 -5.23042e-011 -2.66379e-011
54
root  -27.5602 17.0277 -4.76664 129.615 84.593 66.5201
RightUpLeg  -60.2406 -5.28566 -11.3231
RightLeg  76.5785 -4.74328 -145.459
RightFoot  -17.9232 13.4581 141.124
RightToes  3.49245e-010 -3.18055e-015 8.94531e-016
Spine  54.6416 7.38624 -17.9953
Spine1  -28.4189 6.7046 18.1674
HEad  -68.7081 5.92964 -7.57006
LeftShoulder1  0 0 -2.47967e-037
LeftArm  -13.1151 -63.1829 -68.3099
LeftForeArm  -19.5816 -67.037 60.402
LeftHand  1.53039 12.237 -3.60201
RightShoulder  -2.48481e-017 0 -8.08114e-019
RightArm  17.5917 -20.5445 67.4282
RightForeArm  -13.1871 54.9969 -62.5334
RightHand  5.40235 -17.9265 -33.2408
LeftUpLeg  -56.6111 -14.1775 -15.4102
LeftLeg  106.309 -13.6653 0.233582
LeftFoot  -37.0479 1.48331 7.60691
LeftToes  -9.64061e-011 -5.23042e-011 -2.66379e-011
55
root  -26.3647 17.0437 -4.83815 157.976 84.6188 97.024
RightUpLeg  -62.8943 -6.66574 -8.8809
RightLeg  72.3319 2.33443 -130.682
RightFoot  -23.6162 26.6927 137.84
RightToes  3.49245e-010 -3.18055e-015 8.94531e-016
Spine  56.006 6.89016 -16.6944
Spine1  -27.0902 5.83345 19.9911
HEad  -67.7106 6.27081 -7.1318
LeftShoulder1  0 0 -2.47967e-037
LeftArm  -9.67686 -60.6759 -72.7793
LeftForeArm  -23.3774 -68.5194 66.197
LeftHand  1.52608 14.5924 -7.24163
RightShoulder  -2.48481e-017 0 -8.08114e-019
RightArm  11.8782 -19.7761 64.7312
RightForeArm  -26.3042 58.9058 -76.6054
RightHand  4.7902 -17.2787 -30.2205
LeftUpLeg  -51.2082 -14.8877 -12.8323
LeftLeg  103.632 -13.0988 -1.37445
LeftFoot  -36.8783 1.25359 6.55549
LeftToes  -9.64061e-011 -5.23042e-011 -2.66379e-011
56
root  -25.2699 16.9721 -4.76208 177.943 82.4885 119.498
RightUpLeg  -65.5077 -8.04985 -7.15861
RightLeg  70.0758 10.4506 -120.563
RightFoot  -28.1669 36.5933 136.332
RightToes  3.49245e-010 -3.18055e-015 8.94531e-016
Spine  57.6273 6.34038 -15.6322
Spine1  -26.1381 4.83565 21.5791
HEad  -66.5555 6.04334 -6.192
LeftShoulder1  0 0 -2.47967e-037
LeftArm  -5.65528 -58.2787 -77.3357
LeftForeArm  -28.3521 -69.8047 72.9556
LeftHand  1.44353 16.4486 -10.4067
RightShoulder  -2.48481e-017 0 -8.08114e-019
RightArm  6.69779 -14.6358 61.5635
RightForeArm  -39.4343 60.7072 -88.1207
RightHand  4.70505 -17.2838 -29.4019
LeftUpLeg  -45.4846 -16.0862 -10.5782
LeftLeg  101.208 -12.4973 -3.86444
LeftFoot  -37.3296 0.676489 3.72313
LeftToes  -9.64061e-011 -5.23042e-011 -2.66379e-011
57
root  -24.1668 16.8437 -4.58604 -174.439 79.565 129.448
RightUpLeg  -68.2054 -8.77432 -5.5456
RightLeg  68.3344 16.959 -117.251
RightFoot  -28.6289 40.9446 139.716
RightToes  3.49245e-010 -3.18055e-015 8.94531e-016
Spine  59.2602 5.57252 -14.3407
Spine1  -25.519 3.84243 22.3719
HEad  -66.0243 5.68806 -4.83331
LeftShoulder1  0 0 -2.47967e-037
LeftArm  -1.09107 -56.0488 -82.1828
LeftForeArm  -33.255 -70.7185 79.8467
LeftHand  1.60967 16.3858 -8.0775
RightShoulder  -2.48481e-017 0 -8.08114e-019
RightArm  1.50618 -7.25259 57.7155
RightForeArm  -51.3121 61.398 -96.4096
RightHand  4.52089 -17.084 -28.3882
LeftUpLeg  -39.8083 -17.5443 -8.35474
LeftLeg  98.4593 -12.1362 -6.48583
LeftFoot  -37.7651 0.337596 2.08171
LeftToes  -9.64061e-011 -5.23042e-011 -2.66379e-011
58
root  -23.0544 16.698 -4.34727 -169.989 76.7902 135.618
RightUpLeg  -71.1193 -8.3061 -3.54529
RightLeg  63.8036 17.9674 -125.572
RightFoot  -23.6167 34.341 147.282
RightToes  3.49245e-010 -3.18055e-015 8.94531e-016
Spine  60.7552 4.33474 -12.7769
Spine1  -25.4381 2.87175 22.0918
HEad  -65.4921 5.52049 -3.18318
LeftShoulder1  0 0 -2.47967e-037
LeftArm  3.2806 -53.4907 -86.2029
LeftForeArm  -39.5027 -71.3925 87.4665
LeftHand  1.9666 15.206 -1.70683
RightShoulder  -2.48481e-017 0 -8.08114e-019
RightArm  -3.24833 0.99972 53.9762
RightForeArm  -56.8329 61.5702 -99.0673
RightHand  4.18146 -16.6798 -26.5357
LeftUpLeg  -35.1168 -18.8752 -5.7089
LeftLeg  95.6223 -12.0829 -8.88252
LeftFoot  -37.8463 0.334058 2.0621
LeftToes  -9.64061e-011 -5.23042e-011 -2.66379e-011
59
root  -22.022 16.4512 -4.03678 -166.652 74.5575 140.011
RightUpLeg  -73.9679 -6.54452 -1.71988
RightLeg  57.0071 10.309 -145.456
RightFoot  -16.5084 14.4259 153.771
RightToes  3.49245e-010 -3.18055e-015 8.94531e-016
Spine  61.9576 2.88935 -11.3659
Spine1  -26.3254 2.23813 20.5117
HEad  -64.2332 4.98204 -1.64861
LeftShoulder1  0 0 -2.47967e-037
LeftArm  6.37568 -50.5594 -88.6766
LeftForeArm  -48.8223 -71.8283 96.413
LeftHand  2.30261 14.5359 4.54197
RightShoulder  -2.48481e-017 0 -8.08114e-019
RightArm  -6.5986 9.92734 50.7779
RightForeArm  -55.0665 61.5677 -95.7232
RightHand  3.84594 -16.2875 -24.4996
LeftUpLeg  -31.6657 -19.3895 -2.79661
LeftLeg  93.3599 -12.2142 -10.9333
LeftFoot  -37.7976 0.510771 2.88293
LeftToes  -9.64061e-011 -5.23042e-011 -2.66379e-011
60
root  -21.1077 16.073 -3.63788 -165.325 73.0542 141.858
RightUpLeg  -75.5823 -4.21883 -0.834734
RightLeg  52.7845 -0.594206 -165.131
RightFoot  -11.5919 -7.0137 156.198
RightToes  3.49245e-010 -3.18055e-015 8.94531e-016
Spine  62.654 1.67101 -10.4302
Spine1  -27.8451 1.88624 17.829
HEad  -62.9709 3.43023 -0.367088
LeftShoulder1  0 0 -2.47967e-037
LeftArm  7.87111 -47.5966 -90.0153
LeftForeArm  -60.6923 -71.8627 106.457
LeftHand  2.63363 14.6074 9.35533
RightShoulder  -2.48481e-017 0 -8.08114e-019
RightArm  -9.00455 19.1913 47.6918
RightForeArm  -51.9473 61.2808 -89.2519
RightHand  3.51475 -15.8117 -22.5905
LeftUpLeg  -28.9726 -18.913 -0.366832
LeftLeg  91.6099 -12.4459 -12.2823
LeftFoot  -37.7547 0.579935 3.21423
LeftToes  -9.64061e-011 -5.23042e-011 -2.66379e-011
61
root  -20.2303 15.7932 -3.17465 -164.857 72.3012 142.221
RightUpLeg  -74.9335 -1.88121 -0.196889
RightLeg  52.3285 -4.51461 -171.063
RightFoot  -10.3085 -14.4331 157.832
RightToes  3.49245e-010 -3.18055e-015 8.94531e-016
Spine  63.1252 0.539337 -9.30952
Spine1  -29.4982 1.33783 14.627
HEad  -62.3758 1.11483 1.31545
LeftShoulder1  0 0 -2.47967e-037
LeftArm  9.7464 -44.3283 -92.4361
LeftForeArm  -73.2347 -71.2893 117.314
LeftHand  2.88405 14.5193 13.5059
RightShoulder  -2.48481e-017 0 -8.08114e-019
RightArm  -11.6971 27.7056 44.1369
RightForeArm  -49.3511 60.49 -80.7516
RightHand  3.209 -15.2564 -21.0321
LeftUpLeg  -26.9702 -18.0488 1.43951
LeftLeg  89.3461 -12.8481 -12.6643
LeftFoot  -37.2515 0.263835 1.77538
LeftToes  -9.64061e-011 -5.23042e-011 -2.66379e-011
62
root  -19.2902 15.7484 -2.69038 -162.243 72.3889 143.893
RightUpLeg  -72.8564 0.711935 1.59446
RightLeg  54.3313 2.04796 -159.761
RightFoot  -12.3963 -3.67167 159.341
RightToes  3.49245e-010 -3.18055e-015 8.94531e-016
Spine  63.6129 -0.702634 -7.15288
Spine1  -31.4478 0.813849 10.9616
HEad  -61.8524 -1.37757 3.77048
LeftShoulder1  0 0 -2.47967e-037
LeftArm  9.77581 -38.5705 -90.8793
LeftForeArm  -84.6587 -69.9012 128.322
LeftHand  2.96601 14.0165 16.9259
RightShoulder  -2.48481e-017 0 -8.08114e-019
RightArm  -15.1352 34.7226 39.9109
RightForeArm  -43.4754 58.5292 -70.419
RightHand  2.97283 -14.7269 -20.0346
LeftUpLeg  -25.9292 -16.6884 3.48384
LeftLeg  85.9613 -13.4638 -12.6631
LeftFoot  -35.8715 -0.314483 -1.06612
LeftToes  -9.64061e-011 -5.23042e-011 -2.66379e-011
